G04*
G04 #@! TF.GenerationSoftware,Altium Limited,Altium Designer,21.1.1 (26)*
G04*
G04 Layer_Physical_Order=2*
G04 Layer_Color=16711680*
%FSLAX44Y44*%
%MOMM*%
G71*
G04*
G04 #@! TF.SameCoordinates,6E758193-3902-4676-B705-CF05A6FE81D6*
G04*
G04*
G04 #@! TF.FilePolarity,Positive*
G04*
G01*
G75*
%ADD24C,0.5080*%
%ADD25C,0.3810*%
%ADD26C,0.2794*%
%ADD29O,1.6000X1.0000*%
%ADD30O,2.1000X1.0000*%
%ADD31C,0.7000*%
D24*
X1484630Y603250D02*
X1497330Y590550D01*
Y557530D02*
Y590550D01*
X1357630Y603250D02*
X1484630D01*
X1485900Y546100D02*
X1497330Y557530D01*
X1475740Y546100D02*
X1485900D01*
X1659890Y461010D02*
X1680210Y481330D01*
X1413510Y461010D02*
X1659890D01*
X1411720Y459740D02*
X1412990Y461010D01*
X1368798Y450850D02*
X1377688Y459740D01*
X1412990Y461010D02*
X1413510D01*
X1377688Y459740D02*
X1411720D01*
X1483360Y478790D02*
X1494790Y490220D01*
Y501650D01*
X1353820Y478790D02*
X1483360D01*
X1341120Y466090D02*
X1353820Y478790D01*
X1341120Y458470D02*
Y466090D01*
Y458470D02*
X1348740Y450850D01*
X1466850Y537210D02*
X1475740Y546100D01*
X1466850Y529590D02*
Y537210D01*
Y529590D02*
X1494790Y501650D01*
X1348740Y450850D02*
X1368798D01*
D25*
X1681480Y557530D02*
X1687830Y551180D01*
X1361440Y471170D02*
X1654810D01*
X1687830Y504190D01*
Y551180D01*
X1351280Y461010D02*
X1361440Y471170D01*
X1390012Y441960D02*
X1397000Y448948D01*
X1344904Y441960D02*
X1390012D01*
X1467845Y505735D02*
X1482090Y491490D01*
X1276350Y496570D02*
X1339850Y433070D01*
X1467721D02*
X1481891Y447239D01*
X1339850Y433070D02*
X1467721D01*
X1276350Y496570D02*
Y546100D01*
X1465739Y548798D02*
X1470660Y553720D01*
X1482090D02*
X1489710Y561340D01*
X1470660Y553720D02*
X1482090D01*
X1460493Y548633D02*
X1460659Y548798D01*
X1465739D01*
X1435100Y594360D02*
X1435531Y594791D01*
X1480389D01*
X1352550Y594360D02*
X1435100D01*
X1480389Y594791D02*
X1489710Y585470D01*
X1322070Y563880D02*
X1352550Y594360D01*
X1489710Y561340D02*
Y585470D01*
X1679347Y532130D02*
X1680210D01*
X1478280Y534670D02*
X1676807D01*
X1679347Y532130D01*
X1276350Y546100D02*
X1286510Y556260D01*
X1282700Y504164D02*
X1344904Y441960D01*
X1282700Y504164D02*
Y538480D01*
X1291590Y547370D01*
X1296945Y505735D02*
X1467845D01*
X1291590Y514350D02*
X1469390D01*
X1482090Y501650D01*
X1287780Y563880D02*
X1322070D01*
X1286510Y556260D02*
X1296670D01*
X1300480Y552450D01*
Y539750D02*
Y552450D01*
D26*
X1483360Y567558D02*
Y580390D01*
X1356360Y585470D02*
X1478280D01*
X1483360Y580390D01*
X1480820Y563880D02*
Y565018D01*
X1483360Y567558D01*
X1303020Y532130D02*
X1356360Y585470D01*
X1358427Y577377D02*
X1474470D01*
X1303773Y522723D02*
X1358427Y577377D01*
X1299963Y522723D02*
X1303773D01*
X1299158Y521918D02*
X1299963Y522723D01*
X1292860Y532130D02*
X1303020D01*
D29*
X1227480Y481220D02*
D03*
Y567720D02*
D03*
D30*
X1269280Y481220D02*
D03*
Y567720D02*
D03*
D31*
X1681480Y557530D02*
D03*
X1397000Y448948D02*
D03*
X1482090Y491490D02*
D03*
X1435100Y594360D02*
D03*
X1357630Y603250D02*
D03*
X1480820Y563880D02*
D03*
X1478280Y534670D02*
D03*
X1413510Y461010D02*
D03*
X1481891Y447239D02*
D03*
X1474470Y577377D02*
D03*
X1482090Y501650D02*
D03*
X1680210Y481330D02*
D03*
X1351280Y461010D02*
D03*
X1287780Y563880D02*
D03*
X1296945Y505735D02*
D03*
X1291590Y514350D02*
D03*
X1299158Y521918D02*
D03*
X1292860Y532130D02*
D03*
X1291590Y547370D02*
D03*
X1300480Y539750D02*
D03*
X1680210Y532130D02*
D03*
X1460493Y548633D02*
D03*
M02*
