M48
;Layer_Color=9474304
;FILE_FORMAT=4:4
METRIC,LZ
;TYPE=PLATED
T1F00S00C0.4000
%
T01
X0168021Y0048133
Y0053213
X0168148Y0055753
X0148082Y0056388
X0147447Y00577377
X01460493Y00548633
X0147828Y0053467
X0148209Y0050165
Y0049149
X01481891Y00447239
X0141351Y0046101
X01397Y00448948
X0135128Y0046101
X01296945Y00505735
X0129159Y0051435
X01299158Y00521918
X0129286Y0053213
X0130048Y0053975
X0129159Y0054737
X0128778Y0056388
X0135763Y0060325
X014351Y0059436
M30
