G04*
G04 #@! TF.GenerationSoftware,Altium Limited,Altium Designer,21.1.1 (26)*
G04*
G04 Layer_Physical_Order=1*
G04 Layer_Color=255*
%FSLAX44Y44*%
%MOMM*%
G71*
G04*
G04 #@! TF.SameCoordinates,6E758193-3902-4676-B705-CF05A6FE81D6*
G04*
G04*
G04 #@! TF.FilePolarity,Positive*
G04*
G01*
G75*
%ADD10R,1.5000X0.8000*%
%ADD11R,1.5000X1.0000*%
%ADD12R,1.0000X1.0000*%
%ADD13R,1.0000X1.0000*%
%ADD14R,1.8000X1.0000*%
%ADD15R,0.6000X0.5000*%
%ADD16R,0.5000X0.6000*%
%ADD17R,0.9500X0.3800*%
%ADD18O,0.9500X0.3800*%
%ADD19O,0.2500X1.4000*%
%ADD20O,1.4000X0.2500*%
%ADD21R,1.5000X0.9000*%
%ADD22R,0.9500X0.6000*%
%ADD23R,1.1500X0.3000*%
%ADD24C,0.5080*%
%ADD25C,0.3810*%
%ADD26C,0.2794*%
%ADD27C,0.2286*%
%ADD28C,0.2540*%
%ADD29O,1.6000X1.0000*%
%ADD30O,2.1000X1.0000*%
%ADD31C,0.7000*%
D10*
X1666700Y569950D02*
D03*
Y557250D02*
D03*
Y544550D02*
D03*
Y531850D02*
D03*
Y519150D02*
D03*
Y506450D02*
D03*
Y493750D02*
D03*
Y481050D02*
D03*
D11*
X1536700Y457200D02*
D03*
Y593800D02*
D03*
D12*
X1312310Y559350D02*
D03*
X1332310Y509350D02*
D03*
X1450740Y504740D02*
D03*
X1470740Y454740D02*
D03*
D13*
X1331810Y559350D02*
D03*
X1312310Y509350D02*
D03*
X1470240Y504740D02*
D03*
X1450740Y454740D02*
D03*
D14*
X1327150Y496570D02*
D03*
Y471570D02*
D03*
D15*
X1311910Y497840D02*
D03*
Y487840D02*
D03*
Y469900D02*
D03*
Y479900D02*
D03*
X1423670Y461010D02*
D03*
Y451010D02*
D03*
X1432560Y461010D02*
D03*
Y451010D02*
D03*
X1413510Y580550D02*
D03*
Y590550D02*
D03*
X1363980Y580390D02*
D03*
Y590390D02*
D03*
D16*
X1386680Y461010D02*
D03*
X1376680D02*
D03*
X1454150Y538480D02*
D03*
X1464150D02*
D03*
Y556260D02*
D03*
X1454150D02*
D03*
X1464310Y565150D02*
D03*
X1454310D02*
D03*
Y574040D02*
D03*
X1464310D02*
D03*
X1454150Y586740D02*
D03*
X1464150D02*
D03*
X1454150Y594360D02*
D03*
X1464150D02*
D03*
X1412240Y599440D02*
D03*
X1422240D02*
D03*
X1347732Y575949D02*
D03*
X1337732D02*
D03*
X1347732Y583881D02*
D03*
X1337732D02*
D03*
X1347732Y591831D02*
D03*
X1337732D02*
D03*
D17*
X1402030Y580410D02*
D03*
D18*
Y590010D02*
D03*
Y599410D02*
D03*
X1373430Y580410D02*
D03*
Y599410D02*
D03*
D19*
X1361920Y560160D02*
D03*
X1365920D02*
D03*
X1369920D02*
D03*
X1373920D02*
D03*
X1377920D02*
D03*
X1381920D02*
D03*
X1385920D02*
D03*
X1389920D02*
D03*
X1393920D02*
D03*
X1397920D02*
D03*
X1401920D02*
D03*
X1405920D02*
D03*
X1409920D02*
D03*
X1413920D02*
D03*
X1417920D02*
D03*
X1421920D02*
D03*
Y476160D02*
D03*
X1417920D02*
D03*
X1413920D02*
D03*
X1409920D02*
D03*
X1405920D02*
D03*
X1401920D02*
D03*
X1397920D02*
D03*
X1393920D02*
D03*
X1389920D02*
D03*
X1385920D02*
D03*
X1381920D02*
D03*
X1377920D02*
D03*
X1373920D02*
D03*
X1369920D02*
D03*
X1365920D02*
D03*
X1361920D02*
D03*
D20*
X1433920Y548160D02*
D03*
Y544160D02*
D03*
Y540160D02*
D03*
Y536160D02*
D03*
Y532160D02*
D03*
Y528160D02*
D03*
Y524160D02*
D03*
Y520160D02*
D03*
Y516160D02*
D03*
Y512160D02*
D03*
Y508160D02*
D03*
Y504160D02*
D03*
Y500160D02*
D03*
Y496160D02*
D03*
Y492160D02*
D03*
Y488160D02*
D03*
X1349920D02*
D03*
Y492160D02*
D03*
Y496160D02*
D03*
Y500160D02*
D03*
Y504160D02*
D03*
Y508160D02*
D03*
Y512160D02*
D03*
Y516160D02*
D03*
Y520160D02*
D03*
Y524160D02*
D03*
Y528160D02*
D03*
Y532160D02*
D03*
Y536160D02*
D03*
Y540160D02*
D03*
Y544160D02*
D03*
Y548160D02*
D03*
D21*
X1324610Y592310D02*
D03*
Y575310D02*
D03*
X1293610Y592310D02*
D03*
Y575310D02*
D03*
D22*
X1276080Y492470D02*
D03*
Y500470D02*
D03*
Y556470D02*
D03*
Y548470D02*
D03*
D23*
X1275080Y506970D02*
D03*
Y511970D02*
D03*
Y516970D02*
D03*
Y521970D02*
D03*
Y526970D02*
D03*
Y531970D02*
D03*
Y536970D02*
D03*
Y541970D02*
D03*
D24*
X1689100Y476250D02*
Y562610D01*
X1681760Y569950D02*
X1689100Y562610D01*
X1563050Y569950D02*
X1681760D01*
X1550670Y471170D02*
X1684020D01*
X1689100Y476250D01*
X1368226Y449580D02*
X1376680Y441126D01*
X1386680Y443666D02*
Y461010D01*
X1389656Y440690D02*
X1403350D01*
X1386680Y443666D02*
X1389656Y440690D01*
X1403350D02*
X1413630Y450970D01*
X1451610Y433070D02*
X1510070D01*
X1384736D02*
X1451610D01*
X1450740Y433940D02*
X1451610Y433070D01*
X1450740Y433940D02*
Y453790D01*
X1510070Y433070D02*
X1534200Y457200D01*
X1376680Y441126D02*
X1384736Y433070D01*
X1376680Y441126D02*
Y461010D01*
X1413510D02*
X1413630Y460890D01*
Y450970D02*
Y460890D01*
X1423630Y450970D02*
X1423670Y451010D01*
X1413630Y450970D02*
X1423630D01*
X1450740Y453790D02*
Y454740D01*
X1481523Y447607D02*
X1481891Y447239D01*
X1477873Y447607D02*
X1481523D01*
X1470740Y454740D02*
X1477873Y447607D01*
X1468810Y543560D02*
X1536660D01*
X1563050Y569950D01*
X1464150Y538900D02*
X1468810Y543560D01*
X1464150Y538480D02*
Y538900D01*
X1464310Y594520D02*
X1465030Y593800D01*
X1536700D01*
X1539200D02*
X1563050Y569950D01*
X1536700Y593800D02*
X1539200D01*
X1536700Y457200D02*
X1550670Y471170D01*
X1534200Y457200D02*
X1536700D01*
X1278290Y490260D02*
X1318970Y449580D01*
X1368226D01*
X1278290Y490260D02*
Y492010D01*
X1277830Y492470D02*
X1278290Y492010D01*
X1274330Y492470D02*
X1277830D01*
X1305890Y483870D02*
X1311910D01*
Y487840D01*
Y479900D02*
Y483870D01*
X1286430D02*
X1305890D01*
X1273870Y556930D02*
Y565447D01*
Y556930D02*
X1274330Y556470D01*
X1276080D01*
X1269280Y567720D02*
X1271597D01*
X1273870Y565447D01*
X1227480Y567720D02*
X1269280D01*
X1227480Y481220D02*
Y567720D01*
Y481220D02*
X1269280D01*
X1273870Y483493D02*
Y492010D01*
X1271597Y481220D02*
X1273870Y483493D01*
Y492010D02*
X1274330Y492470D01*
X1269280Y481220D02*
X1271597D01*
X1293610Y592310D02*
X1296610D01*
X1305039Y583881D01*
X1337732D01*
D25*
X1666840Y557390D02*
X1681340D01*
X1681480Y557530D01*
X1435100Y593497D02*
Y594360D01*
X1428957Y594970D02*
X1434490D01*
X1435100Y594360D01*
X1425582Y598345D02*
X1428957Y594970D01*
X1432293Y590690D02*
X1435100Y593497D01*
X1425908Y580911D02*
X1432293Y587297D01*
Y590690D01*
X1422835Y598345D02*
X1425582D01*
X1422240Y598940D02*
X1422835Y598345D01*
X1422240Y598940D02*
Y599440D01*
X1413871Y580911D02*
X1425908D01*
X1413510Y580550D02*
X1413871Y580911D01*
X1413510Y580550D02*
X1414010D01*
X1402035Y580405D02*
X1412225D01*
X1412240Y580390D01*
X1364355Y590015D02*
X1391920D01*
X1402025D01*
X1394152Y605790D02*
X1461770D01*
X1391920Y590015D02*
Y603558D01*
X1394152Y605790D01*
X1461770D02*
X1464310Y603250D01*
X1464230Y586740D02*
Y594280D01*
X1464150Y594360D02*
X1464230Y594280D01*
Y580390D02*
Y586740D01*
X1464150D02*
X1464230D01*
X1432060Y451010D02*
X1447960D01*
X1464230Y574120D02*
X1464310Y574040D01*
X1464230Y574120D02*
Y580390D01*
X1464150Y594360D02*
X1464310Y594520D01*
Y603250D01*
X1447960Y451010D02*
X1450740Y453790D01*
X1680070Y481190D02*
X1680210Y481330D01*
X1666700Y481050D02*
X1666840Y481190D01*
X1680070D01*
X1666700Y557250D02*
X1666840Y557390D01*
X1287170Y563270D02*
X1287780Y563880D01*
X1277175Y549565D02*
X1281415D01*
X1287170Y555320D02*
Y563270D01*
X1281415Y549565D02*
X1287170Y555320D01*
X1274985Y547375D02*
X1277175Y549565D01*
X1461450Y464820D02*
X1471610Y454660D01*
X1363980Y580390D02*
X1370570D01*
X1370590Y580410D01*
X1373430D01*
X1258570Y506730D02*
X1262668Y502632D01*
X1267126D01*
X1268193Y501565D02*
X1274985D01*
X1267126Y502632D02*
X1268193Y501565D01*
X1258570Y506730D02*
Y542290D01*
X1268393Y547375D02*
X1274985D01*
X1267226Y546208D02*
X1268393Y547375D01*
X1258570Y542290D02*
X1262488Y546208D01*
X1267226D01*
X1274985Y501565D02*
X1276080Y500470D01*
X1304290Y485470D02*
Y504023D01*
X1306522Y506255D01*
X1309215D02*
X1312310Y509350D01*
X1306522Y506255D02*
X1309215D01*
X1423670Y461010D02*
X1432560D01*
X1680070Y531990D02*
X1680210Y532130D01*
X1666700Y531850D02*
X1666840Y531990D01*
X1680070D01*
X1454150Y538980D02*
X1459882Y544712D01*
X1454150Y538480D02*
Y538980D01*
X1459882Y548022D02*
X1460493Y548633D01*
X1459882Y544712D02*
Y548022D01*
X1337413Y575630D02*
X1337732Y575949D01*
X1337493Y592071D02*
X1337732Y591831D01*
X1324849Y592071D02*
X1337493D01*
X1324610Y592310D02*
X1324849Y592071D01*
X1324930Y575630D02*
X1337413D01*
X1324610Y575310D02*
X1324930Y575630D01*
X1402025Y590015D02*
X1402030Y590010D01*
X1363980Y590390D02*
X1364355Y590015D01*
X1402030Y590010D02*
X1402035Y590015D01*
X1412975D01*
X1413510Y590550D01*
X1402030Y580410D02*
X1402035Y580405D01*
X1402030Y599410D02*
X1404870D01*
X1404900Y599440D02*
X1412240D01*
X1404870Y599410D02*
X1404900Y599440D01*
X1438910Y461010D02*
X1442720Y464820D01*
X1461450D01*
X1432560Y461010D02*
X1438910D01*
X1304290Y485470D02*
X1305890Y483870D01*
X1326075Y470495D02*
X1327150Y471570D01*
X1311910Y469900D02*
X1312505Y470495D01*
X1326075D01*
X1326475Y497245D02*
X1327150Y496570D01*
X1311910Y497840D02*
X1312505Y497245D01*
X1326475D01*
D26*
X1280160Y585760D02*
X1290610Y575310D01*
X1280160Y600343D02*
X1281797Y601980D01*
X1353890D01*
X1280160Y585760D02*
Y600343D01*
X1356825Y602445D02*
X1357630Y603250D01*
X1354355Y602445D02*
X1356825D01*
X1353890Y601980D02*
X1354355Y602445D01*
X1290610Y575310D02*
X1293610D01*
X1357464Y587635D02*
Y603083D01*
X1473835Y556895D02*
X1480820Y563880D01*
X1474470Y569327D02*
Y577377D01*
X1470293Y565150D02*
X1474470Y569327D01*
X1357464Y587635D02*
X1362377Y582721D01*
Y581493D02*
X1363480Y580390D01*
X1363980D01*
X1362377Y581493D02*
Y582721D01*
X1464310Y565150D02*
X1470293D01*
X1464150Y556260D02*
X1464785Y556895D01*
X1473835D01*
X1289092Y505735D02*
X1296945D01*
X1275080Y506970D02*
X1287857D01*
X1289092Y505735D01*
X1264920Y523710D02*
Y530230D01*
X1266557Y531867D02*
X1274977D01*
X1275080Y531970D02*
X1275160Y532050D01*
X1274977Y531867D02*
X1275080Y531970D01*
X1264920Y530230D02*
X1266557Y531867D01*
X1264920Y523710D02*
X1266557Y522073D01*
X1274977D01*
X1288072Y511970D02*
X1290452Y514350D01*
X1291590D01*
X1275080Y511970D02*
X1288072D01*
X1285240Y521918D02*
X1299158D01*
X1292780Y532050D02*
X1292860Y532130D01*
X1275160Y532050D02*
X1292780D01*
X1285240Y521918D02*
Y525230D01*
Y518607D02*
Y521918D01*
X1275183Y526867D02*
X1283603D01*
Y516970D02*
X1285240Y518607D01*
X1275080Y516970D02*
X1283603D01*
Y526867D02*
X1285240Y525230D01*
X1275080Y526970D02*
X1275183Y526867D01*
X1274977Y522073D02*
X1275080Y521970D01*
X1286113Y541970D02*
X1291513Y547370D01*
X1275080Y541970D02*
X1286113D01*
X1291513Y547370D02*
X1291590D01*
X1287708Y536970D02*
X1290488Y539750D01*
X1300480D01*
X1275080Y536970D02*
X1287708D01*
D27*
X1397000Y448948D02*
Y455930D01*
X1409879Y468809D02*
Y476119D01*
X1409920Y476160D01*
X1397000Y455930D02*
X1409879Y468809D01*
X1480814Y491490D02*
X1482090D01*
X1477484Y488160D02*
X1480814Y491490D01*
X1385961Y461729D02*
Y476119D01*
Y461729D02*
X1386680Y461010D01*
X1385920Y476160D02*
X1385961Y476119D01*
X1659853Y496607D02*
X1663843D01*
X1666700Y493750D01*
X1640300Y516160D02*
X1659853Y496607D01*
X1433920Y516160D02*
X1640300D01*
X1353286Y585777D02*
X1357172Y581892D01*
X1351306Y589974D02*
X1353286Y587994D01*
Y585777D02*
Y587994D01*
X1349089Y589974D02*
X1351306D01*
X1347732Y591331D02*
X1349089Y589974D01*
X1357172Y576135D02*
Y581892D01*
X1353430Y571612D02*
Y579164D01*
X1354769Y570273D02*
X1362737D01*
X1365879Y567131D01*
X1353430Y571612D02*
X1354769Y570273D01*
X1349089Y568611D02*
X1351760Y565940D01*
X1361821D01*
X1361920Y560160D02*
Y565841D01*
X1361821Y565940D02*
X1361920Y565841D01*
X1365879Y560201D02*
Y567131D01*
Y560201D02*
X1365920Y560160D01*
X1350570Y582024D02*
X1353430Y579164D01*
X1349089Y582024D02*
X1350570D01*
X1347732Y583381D02*
X1349089Y582024D01*
Y568611D02*
Y574592D01*
X1433920Y488160D02*
X1477484D01*
X1472600Y492160D02*
X1482090Y501650D01*
X1433920Y492160D02*
X1472600D01*
X1451747Y580390D02*
X1464230D01*
X1649490Y520160D02*
X1663200Y506450D01*
X1658190Y524160D02*
X1663200Y519150D01*
X1433920Y528160D02*
X1646810D01*
X1433920Y520160D02*
X1649490D01*
X1663200Y519150D02*
X1666700D01*
X1433920Y524160D02*
X1658190D01*
X1357172Y576135D02*
X1358511Y574796D01*
X1364747D02*
X1369920Y569623D01*
X1358511Y574796D02*
X1364747D01*
X1369920Y560160D02*
Y569623D01*
X1646810Y528160D02*
X1663200Y544550D01*
X1347732Y575949D02*
X1349089Y574592D01*
X1347732Y583381D02*
Y583881D01*
Y591331D02*
Y591831D01*
X1383561Y573129D02*
X1418930D01*
X1373430Y580410D02*
X1376280D01*
X1383561Y573129D01*
X1413920Y560160D02*
Y568119D01*
X1418930Y573129D01*
X1421920Y564668D02*
X1422019Y564767D01*
X1436125D02*
X1451747Y580390D01*
X1422019Y564767D02*
X1436125D01*
X1421920Y560160D02*
Y564668D01*
X1450650Y592153D02*
X1450673D01*
X1449237Y590740D02*
X1450650Y592153D01*
X1452793Y592503D02*
X1454150Y593860D01*
Y586290D02*
Y586740D01*
X1434820Y569573D02*
X1450180Y584933D01*
X1431649Y573129D02*
X1449237Y590717D01*
X1418930Y573129D02*
X1431649D01*
X1420403Y569573D02*
X1434820D01*
X1417961Y567131D02*
X1420403Y569573D01*
X1451023Y592503D02*
X1452793D01*
Y584933D02*
X1454150Y586290D01*
X1450180Y584933D02*
X1452793D01*
X1449237Y590717D02*
Y590740D01*
X1454150Y593860D02*
Y594360D01*
X1450673Y592153D02*
X1451023Y592503D01*
X1417961Y560201D02*
Y567131D01*
X1417920Y560160D02*
X1417961Y560201D01*
X1421920Y462367D02*
Y476160D01*
X1663200Y544550D02*
X1666700D01*
X1663200Y506450D02*
X1666700D01*
X1452793Y548553D02*
Y554903D01*
X1444441Y540201D02*
X1452793Y548553D01*
X1433961Y540201D02*
X1444441D01*
X1445771Y547471D02*
Y556793D01*
X1442501Y544201D02*
X1445771Y547471D01*
X1433961Y544201D02*
X1442501D01*
X1433920Y548160D02*
Y553672D01*
X1450811Y570563D01*
X1451333D02*
X1454310Y573540D01*
X1450811Y570563D02*
X1451333D01*
X1433920Y540160D02*
X1433961Y540201D01*
X1454310Y573540D02*
Y574040D01*
Y564650D02*
Y565150D01*
X1452953Y563293D02*
X1454310Y564650D01*
X1452271Y563293D02*
X1452953D01*
X1445771Y556793D02*
X1452271Y563293D01*
X1433920Y544160D02*
X1433961Y544201D01*
X1452793Y554903D02*
X1454150Y556260D01*
X1452330Y536160D02*
X1454150Y537980D01*
Y538480D01*
X1433920Y536160D02*
X1452330D01*
X1335120Y512160D02*
X1349920D01*
X1332310Y509350D02*
X1335120Y512160D01*
X1381920Y466250D02*
Y476160D01*
X1378537Y462867D02*
X1381920Y466250D01*
D28*
X1477427Y533817D02*
X1478280Y534670D01*
X1471357Y533817D02*
X1477427D01*
X1469700Y532160D02*
X1471357Y533817D01*
X1433920Y532160D02*
X1469700D01*
X1351280Y461010D02*
X1365880D01*
X1373900Y469030D01*
Y476140D01*
X1373920Y476160D01*
X1327150Y496570D02*
X1327560Y496160D01*
X1349920D01*
X1330880Y475300D02*
X1337630D01*
X1338580Y476250D01*
X1327150Y471570D02*
X1330880Y475300D01*
X1338580Y487930D02*
X1342790Y492140D01*
X1349900D02*
X1349920Y492160D01*
X1342790Y492140D02*
X1349900D01*
X1338580Y476250D02*
Y487930D01*
D29*
X1227480Y481220D02*
D03*
Y567720D02*
D03*
D30*
X1269280Y481220D02*
D03*
Y567720D02*
D03*
D31*
X1681480Y557530D02*
D03*
X1397000Y448948D02*
D03*
X1482090Y491490D02*
D03*
X1435100Y594360D02*
D03*
X1357630Y603250D02*
D03*
X1480820Y563880D02*
D03*
X1478280Y534670D02*
D03*
X1413510Y461010D02*
D03*
X1481891Y447239D02*
D03*
X1474470Y577377D02*
D03*
X1482090Y501650D02*
D03*
X1680210Y481330D02*
D03*
X1351280Y461010D02*
D03*
X1287780Y563880D02*
D03*
X1296945Y505735D02*
D03*
X1291590Y514350D02*
D03*
X1299158Y521918D02*
D03*
X1292860Y532130D02*
D03*
X1291590Y547370D02*
D03*
X1300480Y539750D02*
D03*
X1680210Y532130D02*
D03*
X1460493Y548633D02*
D03*
M02*
